<svg width="224" height="30" viewBox="0 0 224 30" fill="none" xmlns="http://www.w3.org/2000/svg">
<path d="M7.56899 24.356L0.260985 16.4L7.56899 8.444H15.309L7.96499 16.4L15.309 24.356H7.56899ZM19.0451 18.92C19.0451 16.856 19.4291 15.044 20.1971 13.484C20.9891 11.924 22.0571 10.724 23.4011 9.884C24.7451 9.044 26.2451 8.624 27.9011 8.624C29.2211 8.624 30.4211 8.9 31.5011 9.452C32.6051 10.004 33.4691 10.748 34.0931 11.684V2.36H40.2491V29H34.0931V26.12C33.5171 27.08 32.6891 27.848 31.6091 28.424C30.5531 29 29.3171 29.288 27.9011 29.288C26.2451 29.288 24.7451 28.868 23.4011 28.028C22.0571 27.164 20.9891 25.952 20.1971 24.392C19.4291 22.808 19.0451 20.984 19.0451 18.92ZM34.0931 18.956C34.0931 17.42 33.6611 16.208 32.7971 15.32C31.9571 14.432 30.9251 13.988 29.7011 13.988C28.4771 13.988 27.4331 14.432 26.5691 15.32C25.7291 16.184 25.3091 17.384 25.3091 18.92C25.3091 20.456 25.7291 21.68 26.5691 22.592C27.4331 23.48 28.4771 23.924 29.7011 23.924C30.9251 23.924 31.9571 23.48 32.7971 22.592C33.6611 21.704 34.0931 20.492 34.0931 18.956ZM47.7987 6.824C46.7187 6.824 45.8307 6.512 45.1347 5.888C44.4627 5.24 44.1267 4.448 44.1267 3.512C44.1267 2.552 44.4627 1.76 45.1347 1.136C45.8307 0.487998 46.7187 0.163998 47.7987 0.163998C48.8547 0.163998 49.7187 0.487998 50.3907 1.136C51.0867 1.76 51.4347 2.552 51.4347 3.512C51.4347 4.448 51.0867 5.24 50.3907 5.888C49.7187 6.512 48.8547 6.824 47.7987 6.824ZM50.8587 8.912V29H44.7027V8.912H50.8587ZM64.3559 23.24L68.7119 8.912H75.2639L68.1359 29H60.5399L53.4119 8.912H59.9999L64.3559 23.24Z" fill="#5200FF"/>
<path d="M84.26 18.956C84.26 16.868 84.68 15.044 85.52 13.484C86.384 11.924 87.572 10.724 89.084 9.884C90.62 9.044 92.372 8.624 94.34 8.624C96.86 8.624 98.96 9.284 100.64 10.604C102.344 11.924 103.46 13.784 103.988 16.184H97.436C96.884 14.648 95.816 13.88 94.232 13.88C93.104 13.88 92.204 14.324 91.532 15.212C90.86 16.076 90.524 17.324 90.524 18.956C90.524 20.588 90.86 21.848 91.532 22.736C92.204 23.6 93.104 24.032 94.232 24.032C95.816 24.032 96.884 23.264 97.436 21.728H103.988C103.46 24.08 102.344 25.928 100.64 27.272C98.936 28.616 96.836 29.288 94.34 29.288C92.372 29.288 90.62 28.868 89.084 28.028C87.572 27.188 86.384 25.988 85.52 24.428C84.68 22.868 84.26 21.044 84.26 18.956ZM113.437 2.36V29H107.281V2.36H113.437ZM116.674 18.92C116.674 16.856 117.058 15.044 117.826 13.484C118.618 11.924 119.686 10.724 121.03 9.884C122.374 9.044 123.874 8.624 125.53 8.624C126.946 8.624 128.182 8.912 129.238 9.488C130.318 10.064 131.146 10.82 131.722 11.756V8.912H137.878V29H131.722V26.156C131.122 27.092 130.282 27.848 129.202 28.424C128.146 29 126.91 29.288 125.494 29.288C123.862 29.288 122.374 28.868 121.03 28.028C119.686 27.164 118.618 25.952 117.826 24.392C117.058 22.808 116.674 20.984 116.674 18.92ZM131.722 18.956C131.722 17.42 131.29 16.208 130.426 15.32C129.586 14.432 128.554 13.988 127.33 13.988C126.106 13.988 125.062 14.432 124.198 15.32C123.358 16.184 122.938 17.384 122.938 18.92C122.938 20.456 123.358 21.68 124.198 22.592C125.062 23.48 126.106 23.924 127.33 23.924C128.554 23.924 129.586 23.48 130.426 22.592C131.29 21.704 131.722 20.492 131.722 18.956ZM150.504 29.288C148.752 29.288 147.192 28.988 145.824 28.388C144.456 27.788 143.376 26.972 142.584 25.94C141.792 24.884 141.348 23.708 141.252 22.412H147.336C147.408 23.108 147.732 23.672 148.308 24.104C148.884 24.536 149.592 24.752 150.432 24.752C151.2 24.752 151.788 24.608 152.196 24.32C152.628 24.008 152.844 23.612 152.844 23.132C152.844 22.556 152.544 22.136 151.944 21.872C151.344 21.584 150.372 21.272 149.028 20.936C147.588 20.6 146.388 20.252 145.428 19.892C144.468 19.508 143.64 18.92 142.944 18.128C142.248 17.312 141.9 16.22 141.9 14.852C141.9 13.7 142.212 12.656 142.836 11.72C143.484 10.76 144.42 10.004 145.644 9.452C146.892 8.9 148.368 8.624 150.072 8.624C152.592 8.624 154.572 9.248 156.012 10.496C157.476 11.744 158.316 13.4 158.532 15.464H152.844C152.748 14.768 152.436 14.216 151.908 13.808C151.404 13.4 150.732 13.196 149.892 13.196C149.172 13.196 148.62 13.34 148.236 13.628C147.852 13.892 147.66 14.264 147.66 14.744C147.66 15.32 147.96 15.752 148.56 16.04C149.184 16.328 150.144 16.616 151.44 16.904C152.928 17.288 154.14 17.672 155.076 18.056C156.012 18.416 156.828 19.016 157.524 19.856C158.244 20.672 158.616 21.776 158.64 23.168C158.64 24.344 158.304 25.4 157.632 26.336C156.984 27.248 156.036 27.968 154.788 28.496C153.564 29.024 152.136 29.288 150.504 29.288ZM170.578 29.288C168.826 29.288 167.266 28.988 165.898 28.388C164.53 27.788 163.45 26.972 162.658 25.94C161.866 24.884 161.422 23.708 161.326 22.412H167.41C167.482 23.108 167.806 23.672 168.382 24.104C168.958 24.536 169.666 24.752 170.506 24.752C171.274 24.752 171.862 24.608 172.27 24.32C172.702 24.008 172.918 23.612 172.918 23.132C172.918 22.556 172.618 22.136 172.018 21.872C171.418 21.584 170.446 21.272 169.102 20.936C167.662 20.6 166.462 20.252 165.502 19.892C164.542 19.508 163.714 18.92 163.018 18.128C162.322 17.312 161.974 16.22 161.974 14.852C161.974 13.7 162.286 12.656 162.91 11.72C163.558 10.76 164.494 10.004 165.718 9.452C166.966 8.9 168.442 8.624 170.146 8.624C172.666 8.624 174.646 9.248 176.086 10.496C177.55 11.744 178.39 13.4 178.606 15.464H172.918C172.822 14.768 172.51 14.216 171.982 13.808C171.478 13.4 170.806 13.196 169.966 13.196C169.246 13.196 168.694 13.34 168.31 13.628C167.926 13.892 167.734 14.264 167.734 14.744C167.734 15.32 168.034 15.752 168.634 16.04C169.258 16.328 170.218 16.616 171.514 16.904C173.002 17.288 174.214 17.672 175.15 18.056C176.086 18.416 176.902 19.016 177.598 19.856C178.318 20.672 178.69 21.776 178.714 23.168C178.714 24.344 178.378 25.4 177.706 26.336C177.058 27.248 176.11 27.968 174.862 28.496C173.638 29.024 172.21 29.288 170.578 29.288ZM202.856 9.092V14.528H182.696V9.092H202.856ZM202.856 18.272V23.708H182.696V18.272H202.856ZM208.95 3.728H215.25L211.218 13.376H207.078L208.95 3.728ZM217.122 3.728H223.422L219.39 13.376H215.25L217.122 3.728Z" fill="#8C8C8C" fill-opacity="0.52"/>
</svg>
