<svg width="74" height="53" viewBox="0 0 74 53" fill="none" xmlns="http://www.w3.org/2000/svg">
<path d="M6.15948 21.248H14.2235V26H0.00348447V0.727999H6.15948V21.248ZM38.3478 34.72C37.8918 33.88 37.2318 33.244 36.3678 32.812C35.5278 32.356 34.5318 32.128 33.3798 32.128C31.3878 32.128 29.7918 32.788 28.5918 34.108C27.3918 35.404 26.7918 37.144 26.7918 39.328C26.7918 41.656 27.4158 43.48 28.6638 44.8C29.9358 46.096 31.6758 46.744 33.8838 46.744C35.3958 46.744 36.6678 46.36 37.6998 45.592C38.7558 44.824 39.5238 43.72 40.0038 42.28H32.1918V37.744H45.5838V43.468C45.1278 45.004 44.3478 46.432 43.2438 47.752C42.1638 49.072 40.7838 50.14 39.1038 50.956C37.4238 51.772 35.5278 52.18 33.4158 52.18C30.9198 52.18 28.6878 51.64 26.7198 50.56C24.7758 49.456 23.2518 47.932 22.1478 45.988C21.0678 44.044 20.5278 41.824 20.5278 39.328C20.5278 36.832 21.0678 34.612 22.1478 32.668C23.2518 30.7 24.7758 29.176 26.7198 28.096C28.6638 26.992 30.8838 26.44 33.3798 26.44C36.4038 26.44 38.9478 27.172 41.0118 28.636C43.0998 30.1 44.4798 32.128 45.1518 34.72H38.3478Z" fill="#5200FF"/>
<path d="M29.1117 26.252C26.7357 26.252 24.5517 25.7 22.5597 24.596C20.5917 23.492 19.0197 21.956 17.8437 19.988C16.6917 17.996 16.1157 15.764 16.1157 13.292C16.1157 10.82 16.6917 8.6 17.8437 6.632C19.0197 4.664 20.5917 3.128 22.5597 2.024C24.5517 0.92 26.7357 0.368 29.1117 0.368C31.4877 0.368 33.6597 0.92 35.6277 2.024C37.6197 3.128 39.1797 4.664 40.3077 6.632C41.4597 8.6 42.0357 10.82 42.0357 13.292C42.0357 15.764 41.4597 17.996 40.3077 19.988C39.1557 21.956 37.5957 23.492 35.6277 24.596C33.6597 25.7 31.4877 26.252 29.1117 26.252ZM29.1117 20.636C31.1277 20.636 32.7357 19.964 33.9357 18.62C35.1597 17.276 35.7717 15.5 35.7717 13.292C35.7717 11.06 35.1597 9.284 33.9357 7.964C32.7357 6.62 31.1277 5.948 29.1117 5.948C27.0717 5.948 25.4397 6.608 24.2157 7.928C23.0157 9.248 22.4157 11.036 22.4157 13.292C22.4157 15.524 23.0157 17.312 24.2157 18.656C25.4397 19.976 27.0717 20.636 29.1117 20.636ZM60.9457 52.252C58.5697 52.252 56.3857 51.7 54.3937 50.596C52.4257 49.492 50.8537 47.956 49.6777 45.988C48.5257 43.996 47.9497 41.764 47.9497 39.292C47.9497 36.82 48.5257 34.6 49.6777 32.632C50.8537 30.664 52.4257 29.128 54.3937 28.024C56.3857 26.92 58.5697 26.368 60.9457 26.368C63.3217 26.368 65.4937 26.92 67.4617 28.024C69.4537 29.128 71.0137 30.664 72.1417 32.632C73.2937 34.6 73.8697 36.82 73.8697 39.292C73.8697 41.764 73.2937 43.996 72.1417 45.988C70.9897 47.956 69.4297 49.492 67.4617 50.596C65.4937 51.7 63.3217 52.252 60.9457 52.252ZM60.9457 46.636C62.9617 46.636 64.5697 45.964 65.7697 44.62C66.9937 43.276 67.6057 41.5 67.6057 39.292C67.6057 37.06 66.9937 35.284 65.7697 33.964C64.5697 32.62 62.9617 31.948 60.9457 31.948C58.9057 31.948 57.2737 32.608 56.0497 33.928C54.8497 35.248 54.2497 37.036 54.2497 39.292C54.2497 41.524 54.8497 43.312 56.0497 44.656C57.2737 45.976 58.9057 46.636 60.9457 46.636Z" fill="#C3C3C3"/>
</svg>
